<svg xmlns="http://www.w3.org/2000/svg" viewBox="0 0 500 500"><g id="freepik--Bird--inject-31"><rect x="219.08" y="137.45" width="31.05" height="19.52" rx="1.38" transform="translate(97.86 -93.65) rotate(28.31)" style="fill:#407BFF"></rect><rect x="219.08" y="137.45" width="31.05" height="19.52" rx="1.38" transform="translate(97.86 -93.65) rotate(28.31)" style="fill:#fff;opacity:0.7000000000000001;isolation:isolate"></rect><path d="M224.25,133.69,232,148.24a3.18,3.18,0,0,0,3.12,1.66l16.21-1.6-16.5,2.43a3.38,3.38,0,0,1-3.56-1.92Z" style="opacity:0.2;isolation:isolate"></path><path d="M205.34,131c.27-5.56,4.39-16.77,9.4-20.2s1.71,1.32,1.71,1.32,4.75-4.62,7.25-4.48,0,3,0,3,5.15-3.17,7.52-3,0,2.91,0,2.91,4.22-3,5.93-1.59-21.89,17-24.52,23.34S205.07,136.61,205.34,131Z" style="fill:#407BFF"></path><path d="M205.34,131c.27-5.56,4.39-16.77,9.4-20.2s1.71,1.32,1.71,1.32,4.75-4.62,7.25-4.48,0,3,0,3,5.15-3.17,7.52-3,0,2.91,0,2.91,4.22-3,5.93-1.59-21.89,17-24.52,23.34S205.07,136.61,205.34,131Z" style="fill:#fff;opacity:0.4;isolation:isolate"></path><path d="M225.62,130.16l3.15,2a.26.26,0,0,1-.16.48l-3.31-.26.28,2.54a.28.28,0,0,1-.49.22L223.18,133Z" style="fill:#407BFF"></path><path d="M225.62,130.16l3.15,2a.26.26,0,0,1-.16.48l-3.31-.26.28,2.54a.28.28,0,0,1-.49.22L223.18,133Z" style="fill:#fff;opacity:0.30000000000000004;isolation:isolate"></path><path d="M181.37,117.64s4.36-3,10.95-1.06c0,0,1.89,8.71,7.08,11.61,2.85,1.59,9.82,1.45,15.34-.33,6.55-2.12,9.75-2.12,10.94.33s-.13,5-5.14,6.19-9,9.89-18.07,10-13.89-9-11.6-17A24.16,24.16,0,0,0,181.37,117.64Z" style="fill:#407BFF"></path><path d="M181.37,117.64s4.36-3,10.95-1.06c0,0,1.89,8.71,7.08,11.61,2.85,1.59,9.82,1.45,15.34-.33,6.55-2.12,9.75-2.12,10.94.33s-.13,5-5.14,6.19-9,9.89-18.07,10-13.89-9-11.6-17A24.16,24.16,0,0,0,181.37,117.64Z" style="fill:#fff;opacity:0.5;isolation:isolate"></path><path d="M223.18,129.84a.45.45,0,1,1-.45-.45A.45.45,0,0,1,223.18,129.84Z" style="fill:#263238"></path><path d="M200.36,137.16c-5.37,1.46-17.31,1-22.11-2.7s.72-2,.72-2-5.85-3.09-6.5-5.51,2.88-.94,2.88-.94-4.6-3.91-5.2-6.21,2.76-.9,2.76-.9-4.19-3.08-3.34-5.15,22.94,15.57,29.77,16.12S205.8,135.68,200.36,137.16Z" style="fill:#407BFF"></path><path d="M200.36,137.16c-5.37,1.46-17.31,1-22.11-2.7s.72-2,.72-2-5.85-3.09-6.5-5.51,2.88-.94,2.88-.94-4.6-3.91-5.2-6.21,2.76-.9,2.76-.9-4.19-3.08-3.34-5.15,22.94,15.57,29.77,16.12S205.8,135.68,200.36,137.16Z" style="fill:#fff;opacity:0.4;isolation:isolate"></path><path d="M165.16,112.83a.25.25,0,0,1-.12,0c-.93-.33-1.88-.64-2.84-.93a.38.38,0,0,1-.25-.47.38.38,0,0,1,.47-.25c1,.29,1.93.61,2.87,1a.37.37,0,0,1-.13.72Z" style="fill:#407BFF"></path><path d="M104.72,194a.38.38,0,0,1-.38-.37.38.38,0,0,1,.37-.38,35.8,35.8,0,0,0,5.93-.58.38.38,0,0,1,.44.3.37.37,0,0,1-.3.44,36.3,36.3,0,0,1-6.06.59Zm-6-.32h0a51.69,51.69,0,0,1-6-1,.38.38,0,0,1-.29-.45.38.38,0,0,1,.45-.28,55.76,55.76,0,0,0,5.9,1,.38.38,0,0,1,0,.75Zm17.77-2a.37.37,0,0,1-.34-.22.37.37,0,0,1,.19-.5,19.44,19.44,0,0,0,5-3.13.38.38,0,0,1,.5.57,20.54,20.54,0,0,1-5.19,3.25A.4.4,0,0,1,116.47,191.7ZM87,191a.25.25,0,0,1-.12,0c-1.9-.63-3.81-1.37-5.66-2.18a.38.38,0,0,1,.31-.69c1.82.8,3.7,1.53,5.59,2.16a.38.38,0,0,1,.23.48A.37.37,0,0,1,87,191Zm-11-4.86a.31.31,0,0,1-.18,0c-1.79-1-3.53-2.08-5.15-3.21a.37.37,0,1,1,.43-.61c1.6,1.11,3.31,2.18,5.09,3.17a.37.37,0,0,1,.14.51A.39.39,0,0,1,75.93,186.17Zm49.44-2.29a.31.31,0,0,1-.18,0,.37.37,0,0,1-.14-.51c.31-.54.6-1.1.86-1.68a20.62,20.62,0,0,0,1.3-3.81.39.39,0,0,1,.46-.28.38.38,0,0,1,.27.46,22.33,22.33,0,0,1-1.35,3.94c-.27.6-.57,1.19-.89,1.75A.38.38,0,0,1,125.37,183.88Zm-59.3-4.62a.38.38,0,0,1-.24-.09,43.51,43.51,0,0,1-4.27-4.34.38.38,0,0,1,0-.53.37.37,0,0,1,.52,0,42.93,42.93,0,0,0,4.19,4.25.38.38,0,0,1,0,.53A.37.37,0,0,1,66.07,179.26Zm62.18-6.94a.37.37,0,0,1-.37-.38,35,35,0,0,0-.55-5.93.38.38,0,0,1,.3-.44.39.39,0,0,1,.44.31,35.49,35.49,0,0,1,.56,6.06.38.38,0,0,1-.38.38Zm-2-11.86a.38.38,0,0,1-.36-.27c-.51-1.75-1.14-3.61-1.91-5.69a.37.37,0,0,1,.22-.49.38.38,0,0,1,.48.22c.78,2.1,1.41,4,1.93,5.74a.38.38,0,0,1-.25.47Zm-4.14-11.35a.36.36,0,0,1-.33-.21c-.64-1.6-1.51-3.44-2.42-5.39l0-.1a.38.38,0,0,1,.68-.32l0,.1c.92,2,1.78,3.81,2.42,5.38a.39.39,0,0,1-.2.51Zm-5-11a.37.37,0,0,1-.35-.22c-.9-2.09-1.62-3.94-2.19-5.65a.38.38,0,0,1,.23-.48.38.38,0,0,1,.48.24c.56,1.69,1.27,3.52,2.17,5.59a.37.37,0,0,1-.2.49A.32.32,0,0,1,117.2,138.13Zm-3.66-11.46a.38.38,0,0,1-.37-.32,20.66,20.66,0,0,1-.26-3.24,14.79,14.79,0,0,1,.26-2.89.38.38,0,0,1,.74.15,14,14,0,0,0-.25,2.74,20.56,20.56,0,0,0,.25,3.13.39.39,0,0,1-.31.43Zm2.61-11.36a.37.37,0,0,1-.24-.08.38.38,0,0,1,0-.53,16,16,0,0,1,4.81-3.81.38.38,0,0,1,.51.15.39.39,0,0,1-.16.51,15.24,15.24,0,0,0-4.58,3.63A.37.37,0,0,1,116.15,115.31Zm40.32-4.9h-.08c-1.92-.4-3.91-.74-5.92-1a.37.37,0,0,1-.32-.42.37.37,0,0,1,.42-.32c2,.26,4,.6,6,1a.38.38,0,0,1-.07.75Zm-30-.85a.37.37,0,0,1-.08-.74,39.56,39.56,0,0,1,6-.87.38.38,0,0,1,.4.35.37.37,0,0,1-.35.4,38,38,0,0,0-5.9.85Zm18-.7h0c-1.74-.12-3.81-.25-6-.29a.38.38,0,0,1-.37-.38.37.37,0,0,1,.38-.37c2.21.05,4.3.17,6,.29a.37.37,0,0,1,.35.4A.38.38,0,0,1,144.52,108.86Z" style="fill:#407BFF"></path><path d="M58.36,170a.37.37,0,0,1-.33-.19,24.54,24.54,0,0,1-1.35-2.72.37.37,0,0,1,.2-.49.38.38,0,0,1,.49.2,25.88,25.88,0,0,0,1.31,2.64.36.36,0,0,1-.32.56Z" style="fill:#407BFF"></path></g></svg>