<?xml version="1.0" standalone="no"?>
<svg xmlns:xlink="http://www.w3.org/1999/xlink" id="wave" style="transform:rotate(0deg); transition: 0.3s" viewBox="0 0 1440 490" version="1.1" xmlns="http://www.w3.org/2000/svg"><defs><linearGradient id="sw-gradient-0" x1="0" x2="0" y1="1" y2="0"><stop stop-color="rgba(8, 19, 73, 1)" offset="0%"/><stop stop-color="rgba(8, 19, 73, 1)" offset="100%"/></linearGradient></defs><path style="transform:translate(0, 0px); opacity:1" fill="url(#sw-gradient-0)" d="M0,0L60,24.5C120,49,240,98,360,98C480,98,600,49,720,89.8C840,131,960,261,1080,269.5C1200,278,1320,163,1440,106.2C1560,49,1680,49,1800,89.8C1920,131,2040,212,2160,253.2C2280,294,2400,294,2520,285.8C2640,278,2760,261,2880,236.8C3000,212,3120,180,3240,155.2C3360,131,3480,114,3600,130.7C3720,147,3840,196,3960,204.2C4080,212,4200,180,4320,138.8C4440,98,4560,49,4680,89.8C4800,131,4920,261,5040,310.3C5160,359,5280,327,5400,285.8C5520,245,5640,196,5760,179.7C5880,163,6000,180,6120,163.3C6240,147,6360,98,6480,122.5C6600,147,6720,245,6840,277.7C6960,310,7080,278,7200,261.3C7320,245,7440,245,7560,253.2C7680,261,7800,278,7920,302.2C8040,327,8160,359,8280,310.3C8400,261,8520,131,8580,65.3L8640,0L8640,490L8580,490C8520,490,8400,490,8280,490C8160,490,8040,490,7920,490C7800,490,7680,490,7560,490C7440,490,7320,490,7200,490C7080,490,6960,490,6840,490C6720,490,6600,490,6480,490C6360,490,6240,490,6120,490C6000,490,5880,490,5760,490C5640,490,5520,490,5400,490C5280,490,5160,490,5040,490C4920,490,4800,490,4680,490C4560,490,4440,490,4320,490C4200,490,4080,490,3960,490C3840,490,3720,490,3600,490C3480,490,3360,490,3240,490C3120,490,3000,490,2880,490C2760,490,2640,490,2520,490C2400,490,2280,490,2160,490C2040,490,1920,490,1800,490C1680,490,1560,490,1440,490C1320,490,1200,490,1080,490C960,490,840,490,720,490C600,490,480,490,360,490C240,490,120,490,60,490L0,490Z"/></svg>